<svg width="50" height="50" viewBox="0 0 50 50" fill="none" xmlns="http://www.w3.org/2000/svg">
<circle cx="25" cy="25" r="25" fill="white"/>
<path fill-rule="evenodd" clip-rule="evenodd" d="M11 20.5V21.1585C11 24.3735 12.0942 27.4927 14.1026 30.0031L24.5 43L34.8975 30.0031C36.9058 27.4927 38 24.3735 38 21.1585V20.5C38 13.0442 31.9558 7 24.5 7C17.0442 7 11 13.0442 11 20.5ZM24.5 25C26.9853 25 29 22.9853 29 20.5C29 18.0147 26.9853 16 24.5 16C22.0147 16 20 18.0147 20 20.5C20 22.9853 22.0147 25 24.5 25Z" fill="#A67951"/>
</svg>
