<svg width="20" height="20" viewBox="0 0 20 20" fill="none" xmlns="http://www.w3.org/2000/svg">
<path d="M12.717 13.4671L12.2557 13.9527C12.2557 13.9527 11.1592 15.1071 8.16636 11.9562C5.17354 8.80526 6.26998 7.6509 6.26998 7.6509L6.56047 7.34507C7.2761 6.59167 7.34355 5.38211 6.7192 4.49907L5.44207 2.69274C4.66932 1.59981 3.17612 1.45544 2.29041 2.38792L0.700708 4.06158C0.261535 4.52395 -0.0327661 5.12332 0.00292519 5.78821C0.0942297 7.48924 0.82109 11.1491 4.87703 15.4193C9.17815 19.9475 13.2139 20.1275 14.8643 19.9646C15.3863 19.9131 15.8402 19.6316 16.206 19.2464L17.6448 17.7317C18.616 16.7093 18.3421 14.9564 17.0995 14.2412L15.1645 13.1274C14.3486 12.6577 13.3547 12.7957 12.717 13.4671Z" fill="#716040"/>
<path opacity="0.5" d="M10.3905 0.635945C10.4575 0.221819 10.849 -0.0591031 11.2631 0.00793451C11.2887 0.0128466 11.3713 0.0282615 11.4144 0.0378832C11.5009 0.0571366 11.6214 0.0867613 11.7717 0.130545C12.0723 0.218092 12.4922 0.362326 12.9962 0.593377C14.0053 1.05599 15.3481 1.86522 16.7415 3.25864C18.1349 4.65206 18.9441 5.99485 19.4067 7.00388C19.6378 7.50788 19.782 7.92779 19.8695 8.22837C19.9133 8.37868 19.943 8.49923 19.9622 8.58565C19.9718 8.62886 19.9789 8.66356 19.9838 8.6892L19.9896 8.72079C20.0566 9.13488 19.7783 9.54264 19.3641 9.60968C18.9512 9.67653 18.5622 9.39689 18.4935 8.98478C18.4914 8.97364 18.4855 8.94397 18.4793 8.91591C18.4668 8.8598 18.4452 8.77086 18.411 8.65321C18.3424 8.4179 18.2234 8.06815 18.0257 7.63702C17.6309 6.77582 16.9209 5.5866 15.6672 4.33288C14.4135 3.07917 13.2243 2.3692 12.3631 1.97438C11.932 1.77672 11.5822 1.65768 11.3469 1.58914C11.2293 1.55487 11.0814 1.52094 11.0253 1.50845C10.6131 1.43975 10.3236 1.04889 10.3905 0.635945Z" fill="#716040"/>
<path opacity="0.5" fill-rule="evenodd" clip-rule="evenodd" d="M10.6193 4.12925C10.7345 3.72587 11.1549 3.4923 11.5583 3.60755L11.3497 4.33793C11.5583 3.60755 11.5583 3.60755 11.5583 3.60755L11.5598 3.60797L11.5614 3.60842L11.5647 3.6094L11.5726 3.61175L11.5927 3.61799C11.6079 3.62287 11.627 3.62923 11.6497 3.6373C11.6952 3.65345 11.7553 3.6764 11.829 3.708C11.9766 3.77124 12.1782 3.86889 12.4259 4.01545C12.9216 4.30884 13.5983 4.79619 14.3934 5.59121C15.1884 6.38624 15.6757 7.06298 15.9691 7.55872C16.1157 7.80636 16.2133 8.00797 16.2766 8.15552C16.3082 8.22926 16.3312 8.28938 16.3473 8.33486C16.3554 8.3576 16.3617 8.37667 16.3666 8.39194L16.3728 8.41199L16.3751 8.41984L16.3761 8.42321L16.3766 8.42477C16.3766 8.42477 16.3771 8.42623 15.6466 8.6349L16.3771 8.42623C16.4923 8.8296 16.2587 9.25 15.8554 9.36526C15.4554 9.4795 15.0386 9.25091 14.9192 8.85382L14.9155 8.8429C14.9101 8.82768 14.899 8.79772 14.8802 8.75397C14.8428 8.66653 14.7748 8.52349 14.6618 8.33248C14.4359 7.95092 14.0281 7.37438 13.3191 6.66545C12.6102 5.95654 12.0336 5.54868 11.6521 5.32286C11.4611 5.20981 11.3181 5.14185 11.2306 5.10437C11.1868 5.08563 11.1568 5.07444 11.1417 5.06905L11.1307 5.06531C10.7337 4.94592 10.505 4.5292 10.6193 4.12925Z" fill="#716040"/>
</svg>
