<svg width="85" height="86" viewBox="0 0 85 86" fill="none" xmlns="http://www.w3.org/2000/svg">
<path fill-rule="evenodd" clip-rule="evenodd" d="M43.7823 84.8209C66.2508 84.8209 84.4651 66.6066 84.4651 44.138C84.4651 21.6694 66.2508 3.45508 43.7823 3.45508C21.3139 3.45508 3.87454 21.4757 3.87454 43.9443C6.19927 50.9185 12.5999 70.5135 6.97418 64.8669L3.87454 73.391L0 85.7896L3.09964 84.8209L24.356 79.8919C30.1287 83.035 36.7469 84.8209 43.7823 84.8209ZM43.7823 78.5622C62.7942 78.5622 78.2063 63.15 78.2063 44.138C78.2063 25.1263 62.7942 9.714 43.7823 9.714C24.7706 9.714 9.35853 25.1263 9.35853 44.138C9.35853 51.4787 11.6561 58.2826 15.5713 63.8698L12.488 75.4325L24.2544 72.4908C29.8032 76.32 36.5309 78.5622 43.7823 78.5622Z" fill="#BFC8D0"/>
<path d="M78.6519 41.2324C78.6519 60.4911 63.0397 76.1035 43.7811 76.1035C36.4355 76.1035 29.6203 73.8322 23.9995 69.9537L12.0802 72.9334L15.2037 61.2205C11.2376 55.5607 8.91016 48.6684 8.91016 41.2324C8.91016 21.9736 24.5224 6.36133 43.7811 6.36133C63.0397 6.36133 78.6519 21.9736 78.6519 41.2324Z" fill="url(#paint0_linear_720_20496)"/>
<path fill-rule="evenodd" clip-rule="evenodd" d="M43.7843 81.9147C66.2528 81.9147 84.467 63.7004 84.467 41.2318C84.467 18.7632 66.2528 0.548828 43.7843 0.548828C21.3158 0.548828 3.10156 18.7632 3.10156 41.2318C3.10156 48.5282 5.02237 55.3761 8.38587 61.2972L3.10156 81.9147L24.3579 76.9857C30.1306 80.1287 36.7488 81.9147 43.7843 81.9147ZM43.7843 75.6559C62.7962 75.6559 78.2082 60.2438 78.2082 41.2318C78.2082 22.2199 62.7962 6.80775 43.7843 6.80775C24.7725 6.80775 9.36045 22.2199 9.36045 41.2318C9.36045 48.5724 11.658 55.3763 15.5733 60.9636L12.4899 72.5262L24.2564 69.5846C29.8051 73.4137 36.5329 75.6559 43.7843 75.6559Z" fill="white"/>
<path d="M33.611 22.3431C32.6439 20.4003 31.1599 20.5723 29.661 20.5723C26.9821 20.5723 22.8047 23.7812 22.8047 29.7535C22.8047 34.648 24.9615 40.0056 32.229 48.0204C39.2427 55.7554 48.4585 59.7566 56.1092 59.6203C63.7598 59.4843 65.334 52.9004 65.334 50.677C65.334 49.6916 64.7223 49.2 64.3012 49.0663C61.694 47.815 56.8853 45.4836 55.7912 45.0457C54.6972 44.6077 54.1259 45.2002 53.7708 45.5225C52.7787 46.4678 50.812 49.2546 50.1384 49.8814C49.4651 50.5082 48.4611 50.1909 48.0432 49.954C46.5057 49.3371 42.3372 47.4829 39.0146 44.2616C34.905 40.2782 34.6638 38.9075 33.8897 37.6876C33.2705 36.7115 33.7249 36.1128 33.9516 35.851C34.837 34.8296 36.0596 33.2523 36.6079 32.4685C37.156 31.6845 36.7209 30.4945 36.4597 29.7535C35.3366 26.5657 34.3849 23.8972 33.611 22.3431Z" fill="white"/>
<defs>
<linearGradient id="paint0_linear_720_20496" x1="74.2931" y1="15.0791" x2="8.90983" y2="76.1031" gradientUnits="userSpaceOnUse">
<stop stop-color="#716040"/>
<stop offset="1" stop-color="#A67951"/>
</linearGradient>
</defs>
</svg>
