<svg width="300" height="174" viewBox="0 0 300 174" fill="none" xmlns="http://www.w3.org/2000/svg">
<g clip-path="url(#clip0_720_20447)">
<mask id="mask0_720_20447" style="mask-type:luminance" maskUnits="userSpaceOnUse" x="0" y="141" width="300" height="2">
<path d="M0 141.025H300V142.973H0V141.025Z" fill="white"/>
</mask>
<g mask="url(#mask0_720_20447)">
<path d="M300 142.865C299.668 142.869 299.337 142.878 299.006 142.878C199.849 142.879 100.693 142.879 1.53628 142.878C1.02389 142.878 0.511943 142.869 0 142.865V141.057C0.481065 141.062 0.962578 141.071 1.44409 141.071C100.511 141.071 199.577 141.071 298.645 141.071C299.096 141.071 299.547 141.062 300 141.057" fill="#716040"/>
</g>
<path d="M170.523 50.1174C170.868 50.185 171.175 50.0315 171.49 49.9425C173.696 49.3191 175.933 48.8345 178.203 48.54C181.227 48.1493 184.259 48.0187 187.309 48.263C190.631 48.5275 193.867 49.1634 197.004 50.2862C200.352 51.4841 203.429 53.1694 206.17 55.4468C207.729 56.7414 209.123 58.1962 210.337 59.8224C210.443 59.9661 210.552 60.1079 210.669 60.2632C210.832 59.9057 210.835 59.9052 210.802 59.5302C210.619 57.4896 210.376 55.4562 209.925 53.4558C208.698 48.0303 206.953 42.7847 204.408 37.8254C199.061 27.4094 191.385 19.1449 181.365 13.0879C175.064 9.27881 168.269 6.73789 161.016 5.43431C158.195 4.92819 155.356 4.6382 152.492 4.50395C150.258 4.39969 148.032 4.45697 145.809 4.61314C141.744 4.8982 137.745 5.60391 133.82 6.71283C125.527 9.0555 118.057 12.9644 111.409 18.4437C109.406 20.0936 107.523 21.8729 105.753 23.7685C105.63 23.9014 105.504 24.0312 105.381 24.1641C105.228 24.3279 105.043 24.3963 104.817 24.3954C103.13 24.3905 101.442 24.3932 99.7542 24.3896C99.5582 24.3883 99.4755 24.2473 99.582 24.1019C99.7243 23.9086 99.8764 23.7206 100.03 23.5349C104.864 17.6981 110.566 12.8808 117.093 9.03492C123.032 5.53634 129.374 3.05628 136.096 1.55312C138.537 1.00762 141.003 0.619184 143.493 0.361422C146.586 0.0410102 149.682 -0.0793681 152.788 0.0580153C155.829 0.192266 158.848 0.522075 161.847 1.064C166.25 1.85787 170.522 3.09835 174.662 4.7814C181.364 7.5058 187.441 11.2505 192.9 15.9958C198.149 20.5599 202.573 25.8194 206.148 31.7868C209.85 37.9628 212.458 44.5693 213.956 51.6139C214.607 54.6815 215.028 57.7782 215.243 60.9085C215.413 63.3783 215.447 65.8481 215.322 68.3147C215.038 73.934 214.062 79.4333 212.355 84.802C209.56 93.5955 205.122 101.459 199.036 108.391C195.782 112.097 192.148 115.387 188.128 118.247C187.938 118.383 187.74 118.661 187.518 118.565C187.223 118.436 187.382 118.088 187.38 117.84C187.365 116.515 187.389 115.188 187.364 113.863C187.356 113.426 187.508 113.143 187.847 112.879C189.775 111.377 191.59 109.745 193.299 107.999C201.397 99.7271 206.776 89.9573 209.408 78.6833C210.045 75.9527 210.481 73.1898 210.711 70.3933C210.773 69.6424 210.853 68.8938 210.842 68.1402C210.804 65.7738 210.012 63.7318 208.275 62.0765C206.335 60.2265 204.052 58.9981 201.485 58.2799C200.059 57.8812 198.603 57.6556 197.13 57.5182C195.115 57.3316 193.096 57.3397 191.079 57.4185C189.364 57.4851 187.65 57.6019 185.936 57.7165C183.079 57.9067 180.218 57.9984 177.354 57.9201C174.509 57.8422 171.714 57.4368 169.004 56.5481C165.25 55.3174 162.097 53.173 159.476 50.2311C157.333 47.8253 155.691 45.0987 154.324 42.1958C154.276 42.0928 154.205 41.9805 154.301 41.8588C154.51 41.7764 154.623 41.9599 154.759 42.0467C156.498 43.1718 158.422 43.7043 160.474 43.8166C162.592 43.9334 164.685 43.7329 166.767 43.3494C169.642 42.8214 172.466 42.0745 175.299 41.3661C177.929 40.71 180.567 40.0853 183.256 39.7202C186.043 39.3407 188.833 39.2378 191.623 39.7466C195.212 40.3995 198.241 42.0776 200.761 44.6964C202.704 46.7142 204.164 49.0555 205.385 51.5383C205.262 51.7396 205.166 51.5955 205.079 51.5575C204.998 51.5222 204.93 51.4568 204.856 51.4054C202.991 50.113 201.008 49.0408 198.897 48.2102C196.33 47.2011 193.673 46.5799 190.928 46.3038C185.968 45.8044 181.133 46.4506 176.372 47.8276C174.663 48.3212 172.994 48.9307 171.363 49.64C171.071 49.7671 170.724 49.8221 170.536 50.1327" fill="#716040"/>
<path d="M150.316 82.9335C150.316 95.1969 150.316 107.46 150.317 119.723C150.317 120.085 150.296 120.449 150.338 120.807C150.512 122.337 151.545 123.869 153.676 124.016C153.976 124.037 154.278 124.025 154.579 124.025C159.884 124.026 165.188 124.026 170.492 124.026C170.764 124.026 171.035 124.02 171.305 124.029C172.471 124.072 173.347 124.98 173.34 126.132C173.334 127.238 172.483 128.122 171.351 128.195C171.201 128.205 171.05 128.199 170.899 128.199C165.264 128.199 159.627 128.191 153.992 128.203C152.372 128.207 150.896 127.761 149.563 126.868C147.38 125.406 146.285 123.321 146.144 120.717C146.123 120.327 146.139 119.934 146.139 119.543C146.138 106.767 146.141 93.9922 146.138 81.2164C146.134 69.6767 146.125 58.1369 146.118 46.5963C146.118 46.326 146.108 46.0544 146.115 45.7827C146.142 44.7141 145.306 43.6978 144.014 43.6061C143.804 43.5913 143.592 43.5935 143.381 43.5935C139.373 43.5926 135.365 43.5926 131.356 43.5935C131.145 43.5935 130.933 43.59 130.724 43.6083C129.648 43.7036 128.587 44.5593 128.594 45.8892C128.595 46.2204 128.592 46.5515 128.592 46.8827C128.592 58.0018 128.592 69.1195 128.592 80.2377C128.592 80.5993 128.603 80.9622 128.58 81.322C128.506 82.443 127.675 83.189 126.559 83.2172C125.396 83.2472 124.507 82.1956 124.551 81.3126C124.562 81.1023 124.548 80.8911 124.548 80.6799C124.547 69.2001 124.547 57.7199 124.548 46.241C124.548 45.4874 124.566 44.7383 124.778 44.0026C125.529 41.3905 127.924 39.5061 130.646 39.4327C131.82 39.4009 132.996 39.4224 134.171 39.4188C134.412 39.4179 134.654 39.4237 134.895 39.4134C135.19 39.3995 135.274 39.3172 135.297 39.0465C135.304 38.9561 135.304 38.8657 135.304 38.7753C135.304 36.7266 135.305 34.6775 135.304 32.6288C135.302 32.5089 135.297 32.3885 135.285 32.2681C135.271 32.0905 135.158 32.0037 134.991 31.9956C134.719 31.984 134.449 31.9804 134.177 31.9804C131.917 31.9795 129.657 31.9795 127.397 31.9804C127.004 31.9804 126.613 31.9795 126.228 31.8891C125.167 31.6416 124.511 30.7959 124.557 29.7339C124.6 28.7338 125.324 27.9448 126.364 27.7842C126.599 27.7475 126.843 27.7533 127.084 27.7533C133.986 27.752 140.887 27.7533 147.789 27.752C148.152 27.752 148.509 27.7578 148.861 27.8746C149.765 28.1771 150.323 28.9723 150.296 29.9425C150.271 30.8509 149.677 31.6108 148.794 31.8694C148.412 31.9804 148.021 31.9804 147.629 31.9804C145.279 31.9782 142.928 31.9782 140.577 31.9804C139.469 31.9817 139.537 31.8972 139.536 32.9909C139.534 34.7988 139.536 36.6067 139.536 38.4141C139.536 38.505 139.534 38.5954 139.536 38.6858C139.547 39.3995 139.553 39.4063 140.224 39.4179C140.435 39.4224 140.647 39.4188 140.858 39.4188C141.852 39.4201 142.846 39.4304 143.841 39.4201C147.031 39.3893 149.647 41.9472 150.163 44.5297C150.229 44.8528 150.27 45.1826 150.287 45.5124C150.31 45.9626 150.303 46.415 150.303 46.8679C150.303 55.8471 150.303 64.8253 150.303 73.804V82.9335" fill="#716040"/>
<path d="M90.3811 39.5215V45.8178C90.3811 47.6862 90.3552 49.5549 90.3887 51.4224C90.4196 53.143 90.3015 54.8453 90.0294 56.5463C89.8204 57.8525 89.6727 59.1727 89.5738 60.4919C89.4633 61.9628 89.3881 63.4405 89.3863 64.915C89.3765 72.6479 90.7167 80.1413 93.5776 87.3322C98.77 100.383 107.433 110.492 119.497 117.686C120.396 118.222 120.29 117.985 120.298 119.08C120.306 120.195 120.302 121.31 120.296 122.424C120.294 122.627 120.353 122.844 120.211 123.028C118.721 122.606 113.391 119.248 110.012 116.6C103.264 111.312 97.7636 104.942 93.5154 97.4995C89.3769 90.249 86.7223 82.4804 85.5754 74.2141C84.3595 65.4543 84.9077 56.7906 87.1824 48.2397C88.0622 44.9336 89.6794 40.4518 90.3811 39.5215Z" fill="#716040"/>
<path d="M120.284 46.6871C120.284 50.3311 120.284 53.9765 120.283 57.6205C120.283 57.9221 120.293 58.2242 120.273 58.5245C120.198 59.6294 119.363 60.4192 118.276 60.4666C116.959 60.5239 116.188 59.4727 116.116 58.5898C116.086 58.23 116.098 57.8671 116.098 57.506C116.097 50.5178 116.098 43.5296 116.097 36.5414C116.097 36.2102 116.097 35.8795 116.093 35.547C116.069 33.4849 114.253 31.9603 112.499 31.9773C110.149 31.9992 107.799 31.9795 105.449 31.9786C104.124 31.9786 102.796 32.022 101.473 31.9706C99.6495 31.9008 97.7176 33.3592 97.6966 35.7497C97.6939 36.0513 97.6948 36.3525 97.6948 36.6528C97.6948 43.5501 97.6948 50.4493 97.6948 57.3458C97.6948 57.7078 97.6791 58.0698 97.6921 58.4305C97.7297 59.4933 96.7394 60.4478 95.6927 60.4738C94.407 60.506 93.5724 59.483 93.5191 58.5017C93.5106 58.3517 93.5124 58.2005 93.5124 58.0501C93.5124 50.6108 93.4977 43.1698 93.5209 35.7305C93.5299 32.7976 94.8165 30.5202 97.2871 28.9334C98.5916 28.0947 100.049 27.7605 101.585 27.7546C104.236 27.7466 106.887 27.7511 109.539 27.7511C110.533 27.7511 111.528 27.7202 112.521 27.7627C115.406 27.8889 117.653 29.1513 119.181 31.6211C119.858 32.7161 120.229 33.9203 120.267 35.2114C120.294 36.1749 120.283 37.1383 120.283 38.1031C120.285 40.9636 120.284 43.8254 120.284 46.6871Z" fill="#716040"/>
<path d="M135.305 81.8526C135.305 71.1014 135.305 60.3501 135.306 49.598C135.306 49.2373 135.287 48.873 135.324 48.5155C135.447 47.3193 136.359 46.4959 137.494 46.5303C138.419 46.5576 139.238 47.2186 139.442 48.1234C139.502 48.3861 139.518 48.66 139.532 48.9303C139.548 49.2006 139.537 49.4722 139.537 49.7425C139.537 71.1855 139.537 92.628 139.537 114.071C139.537 114.372 139.551 114.674 139.53 114.974C139.511 115.242 139.482 115.517 139.405 115.773C139.14 116.649 138.357 117.212 137.439 117.217C136.512 117.222 135.727 116.678 135.449 115.806C135.367 115.552 135.333 115.278 135.314 115.01C135.291 114.681 135.305 114.348 135.305 114.017C135.305 103.295 135.305 92.5739 135.305 81.8526Z" fill="#716040"/>
<path d="M109.011 56.267C109.011 58.6464 109.043 61.0275 109.002 63.4069C108.96 65.8248 107.937 67.7651 105.945 69.156C104.807 69.9507 103.528 70.3714 102.131 70.3759C101.33 70.3786 100.58 70.5553 99.8793 70.9406C98.1094 71.9148 97.3469 74.0136 97.7854 75.7164C98.2714 77.6039 99.89 78.9867 101.815 79.0234C103.683 79.0597 105.551 79.0355 107.42 79.0359C108.866 79.0368 110.313 79.0158 111.76 79.0391C113.532 79.0668 115.517 77.8151 116.002 75.6389C116.089 75.2505 116.092 74.8625 116.094 74.4719C116.097 72.634 116.095 70.7961 116.096 68.9582C116.096 68.687 116.086 68.4149 116.11 68.1451C116.205 67.0191 117.105 66.1993 118.221 66.211C119.337 66.223 120.213 67.0581 120.271 68.1992C120.301 68.8002 120.282 69.4039 120.281 70.0067C120.281 71.6034 120.322 73.2014 120.269 74.7967C120.149 78.4667 118.36 81.0492 115.035 82.5667C114.038 83.0214 112.971 83.2178 111.871 83.2165C109.551 83.2143 107.23 83.2192 104.91 83.2192C103.885 83.2196 102.861 83.2178 101.836 83.2143C98.1237 83.2008 94.1705 80.5185 93.5507 75.8202C92.9126 70.9849 96.2787 67.1333 100.342 66.3604C100.879 66.2579 101.415 66.2213 101.957 66.1984C103.534 66.1318 104.613 65.1441 104.801 63.5868C104.837 63.2892 104.828 62.9854 104.828 62.6842C104.829 58.2857 104.829 53.8863 104.829 49.4882C104.829 49.1871 104.822 48.8846 104.834 48.5847C104.88 47.4311 105.715 46.5696 106.817 46.5307C107.963 46.4904 108.901 47.3277 109.004 48.4939C109.025 48.7333 109.012 48.9754 109.012 49.217C109.012 51.5664 109.012 53.9163 109.012 56.267" fill="#716040"/>
<path d="M124.546 105.344C124.546 100.377 124.546 95.4084 124.546 90.4407C124.546 90.1091 124.534 89.7766 124.56 89.4472C124.638 88.4426 125.369 87.7342 126.383 87.6626C127.791 87.5632 128.682 88.3651 128.726 89.7792C128.736 90.1399 128.73 90.5015 128.73 90.8631C128.73 100.437 128.73 110.012 128.73 119.587C128.73 119.888 128.728 120.189 128.732 120.49C128.763 122.481 130.115 123.902 132.103 124.014C132.614 124.043 133.127 124.023 133.639 124.023C134.904 124.025 136.169 124.008 137.434 124.03C138.87 124.054 139.814 125.326 139.437 126.696C139.212 127.519 138.476 128.127 137.594 128.189C137.204 128.217 136.811 128.197 136.42 128.197C135.035 128.197 133.65 128.206 132.264 128.194C130.043 128.175 128.149 127.349 126.62 125.757C125.323 124.406 124.62 122.768 124.558 120.88C124.536 120.218 124.546 119.556 124.546 118.893C124.546 114.377 124.546 109.86 124.546 105.344Z" fill="#716040"/>
<path d="M179.151 107.864C179.151 102.079 179.151 96.295 179.152 90.5101C179.152 90.179 179.138 89.846 179.166 89.5162C179.244 88.5689 179.957 87.8157 180.878 87.6868C181.898 87.5445 182.785 88.0238 183.151 88.9291C183.264 89.2084 183.344 89.4992 183.334 89.808C183.328 90.0188 183.336 90.2296 183.336 90.4403C183.336 102.1 183.336 113.76 183.336 125.42C183.336 125.691 183.36 125.966 183.323 126.232C183.198 127.142 182.74 127.8 181.836 128.092C181 128.361 180.294 128.114 179.694 127.516C179.361 127.185 179.181 126.775 179.163 126.303C179.152 125.972 179.152 125.64 179.152 125.309C179.151 119.494 179.151 113.679 179.151 107.864Z" fill="#716040"/>
<path d="M166.785 102.472C166.785 106.447 166.785 110.421 166.785 114.395C166.785 114.696 166.796 114.998 166.775 115.298C166.71 116.282 165.973 117.082 165.034 117.203C164.003 117.336 163.079 116.791 162.744 115.844C162.653 115.588 162.593 115.325 162.602 115.049C162.609 114.808 162.601 114.567 162.601 114.326C162.601 106.408 162.601 98.4897 162.602 90.5711C162.602 90.24 162.576 89.9052 162.616 89.5786C162.721 88.739 163.139 88.0875 163.947 87.7939C164.696 87.5214 165.435 87.6042 166.068 88.1465C166.498 88.5153 166.756 88.9802 166.776 89.5562C166.787 89.8569 166.785 90.1585 166.785 90.4592C166.785 94.4635 166.785 98.4682 166.785 102.472Z" fill="#716040"/>
<path d="M170.524 50.1191C170.494 50.1594 170.473 50.2176 170.434 50.2359C170.397 50.2534 170.34 50.227 170.293 50.2189C170.32 50.1925 170.344 50.1514 170.375 50.1424C170.426 50.1272 170.482 50.1353 170.537 50.1344L170.524 50.1191Z" fill="#FDFDFD"/>
<path d="M134.559 167.454C134.82 167.229 134.723 166.977 134.725 166.759C134.734 165.273 134.725 163.787 134.726 162.301C134.726 162.02 134.736 161.739 134.755 161.459C134.766 161.28 134.885 161.146 135.056 161.142C135.776 161.125 136.498 161.12 137.219 161.133C137.449 161.137 137.559 161.317 137.573 161.539C137.585 161.739 137.586 161.94 137.587 162.141C137.587 165.434 137.591 168.728 137.585 172.021C137.584 173.104 137.574 173.127 136.533 173.116C134.661 173.097 135.057 173.38 134.087 171.772C133.194 170.294 132.306 168.814 131.411 167.338C131.292 167.141 131.153 166.957 131.029 166.778C130.703 166.885 130.788 167.119 130.787 167.293C130.78 168.819 130.787 170.346 130.787 171.872C130.787 172.152 130.786 172.434 130.758 172.713C130.736 172.936 130.576 173.061 130.362 173.099C130.244 173.12 130.122 173.121 130.001 173.119C127.567 173.08 127.947 173.475 127.93 171.129C127.908 168.238 127.924 165.346 127.925 162.454C127.925 162.133 127.931 161.812 127.949 161.492C127.961 161.257 128.113 161.142 128.336 161.118C128.455 161.105 128.576 161.096 128.696 161.103C129.334 161.139 130.034 160.904 130.592 161.221C131.106 161.513 131.287 162.178 131.598 162.688C132.414 164.024 133.207 165.375 134.018 166.714C134.175 166.974 134.3 167.27 134.559 167.454Z" fill="#716040"/>
<path d="M38.7582 167.072C38.7582 168.596 38.7586 170.12 38.7582 171.644C38.7582 171.924 38.7658 172.205 38.7519 172.486C38.7273 172.981 38.6123 173.083 38.0824 173.117C38.0023 173.122 37.9222 173.121 37.8417 173.12C35.5966 173.097 35.9232 173.38 35.8968 171.231C35.887 170.429 35.9009 169.627 35.8866 168.825C35.8789 168.408 35.7778 168.286 35.4207 168.279C34.6188 168.263 33.8164 168.262 33.0149 168.278C32.6623 168.284 32.5486 168.427 32.5312 168.819C32.5169 169.14 32.5245 169.46 32.524 169.781C32.5227 170.664 32.5325 171.546 32.5182 172.428C32.5084 173.028 32.4256 173.102 31.8 173.117C31.2791 173.129 30.7568 173.129 30.2359 173.109C29.8037 173.093 29.6927 172.963 29.6609 172.508C29.6502 172.349 29.6537 172.188 29.6537 172.027C29.6533 168.739 29.6502 165.451 29.6551 162.162C29.6569 161.111 29.6667 161.109 30.7237 161.099C31.1247 161.095 31.5265 161.092 31.9271 161.106C32.4193 161.125 32.5048 161.196 32.5124 161.661C32.528 162.624 32.5222 163.586 32.5236 164.549C32.5254 165.82 32.4332 165.789 33.7766 165.783C34.3382 165.78 34.8998 165.778 35.4614 165.768C35.7577 165.762 35.8866 165.585 35.8874 165.304C35.8915 164.341 35.891 163.379 35.8968 162.416C35.8986 162.096 35.9076 161.775 35.9277 161.456C35.9389 161.277 36.062 161.145 36.2307 161.141C36.9507 161.124 37.6707 161.119 38.3903 161.132C38.6208 161.136 38.7322 161.317 38.7425 161.539C38.7555 161.819 38.7573 162.099 38.7577 162.38C38.7591 163.944 38.7582 165.508 38.7582 167.072Z" fill="#716040"/>
<mask id="mask1_720_20447" style="mask-type:luminance" maskUnits="userSpaceOnUse" x="149" y="160" width="10" height="14">
<path d="M149.273 160.848H158.667V173.292H149.273V160.848Z" fill="white"/>
</mask>
<g mask="url(#mask1_720_20447)">
<path d="M149.382 167.004C149.382 166.483 149.374 165.961 149.383 165.44C149.431 162.878 150.812 161.283 153.346 160.984C154.971 160.792 156.464 161.177 157.622 162.431C158.21 163.07 158.545 163.833 158.551 164.718C158.551 165.021 158.426 165.185 158.137 165.192C157.495 165.208 156.854 165.203 156.212 165.199C155.942 165.198 155.745 165.075 155.705 164.793C155.631 164.278 155.359 163.893 154.926 163.635C153.777 162.953 152.336 163.675 152.272 165.015C152.206 166.377 152.248 167.743 152.26 169.108C152.269 170.36 153.735 171.219 155.035 170.549C155.5 170.308 155.711 169.89 155.742 169.369C155.77 168.879 155.633 168.693 155.164 168.669C154.843 168.653 154.521 168.665 154.202 168.647C153.918 168.632 153.772 168.465 153.771 168.18C153.769 167.739 153.765 167.298 153.773 166.856C153.779 166.566 153.959 166.417 154.234 166.416C155.518 166.409 156.802 166.406 158.086 166.418C158.452 166.422 158.555 166.547 158.562 166.958C158.575 167.68 158.586 168.403 158.56 169.125C158.485 171.157 157.297 172.626 155.325 173.085C154.336 173.314 153.336 173.307 152.352 172.997C150.628 172.454 149.516 171.084 149.408 169.291C149.362 168.532 149.4 167.767 149.4 167.004C149.394 167.004 149.388 167.004 149.382 167.004Z" fill="#716040"/>
</g>
<mask id="mask2_720_20447" style="mask-type:luminance" maskUnits="userSpaceOnUse" x="225" y="160" width="10" height="14">
<path d="M225.684 160.848H234.963V173.292H225.684V160.848Z" fill="white"/>
</mask>
<g mask="url(#mask2_720_20447)">
<path d="M232.174 165.233C232.109 165.005 232.078 164.85 232.021 164.706C231.608 163.632 230.593 163.141 229.505 163.478C229.092 163.605 228.786 163.827 228.707 164.278C228.628 164.736 228.837 165.065 229.218 165.273C229.569 165.464 229.936 165.626 230.31 165.768C230.947 166.009 231.598 166.214 232.235 166.455C232.608 166.597 232.985 166.747 233.328 166.948C235.308 168.106 235.504 170.771 233.725 172.223C233.571 172.349 233.409 172.476 233.231 172.563C231.301 173.5 229.351 173.525 227.456 172.525C226.309 171.92 225.722 170.893 225.747 169.562C225.754 169.182 225.866 169.032 226.22 169.022C226.82 169.006 227.423 169.015 228.025 169.016C228.305 169.017 228.456 169.155 228.501 169.439C228.683 170.604 230.169 170.985 231.235 170.708C231.71 170.586 232.035 170.183 232.049 169.776C232.065 169.307 231.794 169.026 231.395 168.866C230.801 168.627 230.199 168.404 229.593 168.199C228.907 167.967 228.234 167.707 227.61 167.341C226.902 166.925 226.331 166.372 226.041 165.582C225.507 164.131 226.049 162.526 227.379 161.696C229.146 160.594 231.79 160.712 233.408 161.928C234.292 162.593 234.757 163.494 234.839 164.595C234.871 165.038 234.74 165.22 234.332 165.229C233.615 165.244 232.898 165.233 232.174 165.233Z" fill="#716040"/>
</g>
<mask id="mask3_720_20447" style="mask-type:luminance" maskUnits="userSpaceOnUse" x="261" y="160" width="10" height="14">
<path d="M261.082 160.848H270.476V173.292H261.082V160.848Z" fill="white"/>
</mask>
<g mask="url(#mask3_720_20447)">
<path d="M267.597 165.227C267.531 165.02 267.491 164.869 267.435 164.724C267.016 163.647 266.021 163.158 264.917 163.471C264.498 163.59 264.187 163.807 264.11 164.259C264.035 164.707 264.224 165.05 264.603 165.271C264.878 165.431 265.172 165.566 265.471 165.678C266.186 165.946 266.911 166.183 267.624 166.451C268 166.592 268.379 166.739 268.722 166.94C270.648 168.062 270.924 170.519 269.312 172.057C268.958 172.395 268.556 172.659 268.099 172.825C266.57 173.378 265.027 173.394 263.498 172.844C262.558 172.506 261.822 171.901 261.423 170.953C261.331 170.733 261.239 170.501 261.211 170.267C261.048 168.959 261.142 168.999 262.249 169.004C262.489 169.005 262.731 169.009 262.972 169.003C263.471 168.991 263.919 168.975 263.992 169.685C264.034 170.087 264.408 170.35 264.782 170.538C265.347 170.822 265.944 170.836 266.547 170.733C266.872 170.677 267.132 170.486 267.317 170.199C267.548 169.837 267.511 169.377 267.175 169.114C266.957 168.944 266.702 168.81 266.443 168.71C265.883 168.493 265.308 168.31 264.741 168.11C264.056 167.87 263.387 167.595 262.779 167.197C260.466 165.682 260.906 162.539 263.14 161.5C264.887 160.687 266.655 160.708 268.35 161.637C269.563 162.301 270.244 163.345 270.211 164.778C270.205 165.061 270.06 165.225 269.768 165.226C269.049 165.229 268.328 165.227 267.597 165.227Z" fill="#716040"/>
</g>
<path d="M50.5843 167.082C50.5843 165.357 50.5776 163.632 50.5874 161.908C50.5914 161.172 50.6456 161.107 51.3034 161.105C53.6707 161.095 56.038 161.101 58.4053 161.103C58.5248 161.103 58.6469 161.11 58.7637 161.133C58.936 161.168 59.0336 161.286 59.0524 161.461C59.0658 161.58 59.0788 161.7 59.0783 161.82C59.0689 163.756 59.2962 163.511 57.4566 163.527C56.2931 163.537 55.1291 163.526 53.966 163.538C53.5655 163.543 53.4711 163.643 53.4563 164.033C53.4411 164.434 53.4393 164.836 53.4537 165.237C53.4693 165.679 53.5588 165.766 54.0515 165.775C54.8937 165.792 55.7364 165.777 56.579 165.796C57.0095 165.805 57.1183 165.94 57.146 166.391C57.1509 166.471 57.1505 166.552 57.1496 166.632C57.1294 168.357 57.3469 168.189 55.6281 168.204C55.0665 168.208 54.5044 168.199 53.9432 168.217C53.5633 168.229 53.4774 168.337 53.4505 168.743C53.4451 168.823 53.4447 168.903 53.446 168.984C53.4774 170.885 53.1681 170.659 55.0758 170.675C56.1991 170.685 57.3228 170.672 58.446 170.688C58.979 170.696 59.0595 170.789 59.0756 171.332C59.0886 171.772 59.0819 172.214 59.0653 172.655C59.055 172.931 58.8935 173.088 58.6107 173.107C58.5708 173.109 58.531 173.115 58.4907 173.115C56.0836 173.117 53.6761 173.124 51.2689 173.114C50.7029 173.112 50.5928 172.987 50.5892 172.377C50.5784 170.612 50.5856 168.847 50.5856 167.082" fill="#716040"/>
<path d="M95.8382 165.866C95.8382 167.269 95.8319 168.672 95.8418 170.074C95.8449 170.537 95.9577 170.658 96.4012 170.663C97.724 170.677 99.0468 170.678 100.37 170.672C101.667 170.666 101.611 170.674 101.609 171.94C101.608 172.1 101.614 172.261 101.606 172.42C101.577 173 101.484 173.11 100.872 173.113C98.4664 173.123 96.0611 173.123 93.6557 173.113C93.0776 173.111 92.9782 173.002 92.9769 172.387C92.9697 168.86 92.9737 165.333 92.9742 161.806C92.9742 161.726 92.9787 161.646 92.9813 161.565C92.9916 161.28 93.1362 161.115 93.4235 161.111C94.0648 161.103 94.706 161.101 95.3473 161.108C95.6189 161.111 95.8024 161.249 95.8181 161.538C95.8328 161.819 95.8346 162.099 95.8351 162.379C95.8369 163.541 95.836 164.704 95.836 165.866" fill="#716040"/>
<path d="M115.922 167.164C115.922 168.764 115.922 170.364 115.921 171.964C115.921 172.204 115.927 172.445 115.905 172.683C115.887 172.896 115.783 173.082 115.545 173.088C114.866 173.104 114.186 173.113 113.507 173.096C113.231 173.089 113.091 172.885 113.073 172.614C113.06 172.415 113.06 172.215 113.06 172.015C113.059 168.735 113.056 165.454 113.062 162.174C113.063 161.11 113.073 161.09 114.113 161.101C116.202 161.124 115.897 160.808 115.919 162.843C115.935 164.283 115.922 165.723 115.922 167.164Z" fill="#716040"/>
<path d="M249.451 167.156C249.451 168.677 249.451 170.197 249.451 171.718C249.451 171.998 249.458 172.279 249.442 172.558C249.419 172.99 249.307 173.1 248.838 173.112C248.278 173.127 247.716 173.127 247.157 173.109C246.734 173.094 246.618 172.956 246.586 172.505C246.576 172.346 246.579 172.185 246.579 172.025C246.578 168.703 246.578 165.382 246.579 162.06C246.579 161.9 246.579 161.74 246.588 161.58C246.603 161.303 246.748 161.111 247.027 161.115C247.779 161.124 248.539 160.987 249.284 161.202C249.612 161.843 249.424 162.531 249.441 163.194C249.475 164.514 249.451 165.835 249.451 167.156Z" fill="#716040"/>
<mask id="mask4_720_20447" style="mask-type:luminance" maskUnits="userSpaceOnUse" x="183" y="160" width="11" height="14">
<path d="M183.754 160.848H193.377V173.292H183.754V160.848Z" fill="white"/>
</mask>
<g mask="url(#mask4_720_20447)">
<path d="M190.366 169.084C190.29 170.256 189.533 170.892 188.367 170.812C187.604 170.76 186.998 170.275 186.818 169.531C186.754 169.263 186.747 168.977 186.745 168.698C186.736 167.658 186.739 166.618 186.742 165.577C186.744 165.338 186.742 165.094 186.787 164.86C186.951 163.985 187.699 163.375 188.573 163.384C189.455 163.393 190.179 164 190.337 164.886C190.38 165.12 190.375 165.364 190.377 165.604C190.383 166.124 190.378 166.644 190.378 167.164H190.373C190.373 167.805 190.407 168.447 190.366 169.084ZM190.272 173.035C192.026 172.446 193.144 171.043 193.217 169.192C193.272 167.792 193.293 166.384 193.211 164.987C193.113 163.289 192.251 162.048 190.662 161.365C189.876 161.028 189.048 160.89 188.196 160.946C185.564 161.119 183.923 162.834 183.881 165.468C183.861 166.629 183.852 167.792 183.886 168.953C183.949 171.101 185.119 172.561 187.192 173.141C187.192 173.141 188.753 173.546 190.272 173.035Z" fill="#716040"/>
</g>
<path d="M77.0678 168.98C76.9027 169.126 76.7009 169.121 76.5035 169.119C74.309 169.091 74.4195 169.43 75.0375 167.301C75.2375 166.613 75.4353 165.923 75.6443 165.237C75.6855 165.102 75.6752 164.875 75.9088 164.926C75.9871 164.943 76.0645 165.085 76.0945 165.185C76.4055 166.215 76.708 167.248 77.0092 168.281C77.0763 168.51 77.1452 168.741 77.0678 168.98ZM81.3549 172.805C81.2927 172.492 81.2036 172.183 81.1065 171.878C80.2773 169.279 79.4441 166.683 78.613 164.084C78.3445 163.244 78.072 162.404 77.8174 161.56C77.7207 161.24 77.5225 161.104 77.2039 161.104C76.3205 161.104 75.4371 161.104 74.5542 161.104C74.2351 161.103 74.0248 161.235 73.9416 161.559C73.882 161.792 73.7952 162.017 73.7223 162.247C72.7302 165.383 71.739 168.519 70.7459 171.654C70.2846 173.113 70.072 173.149 71.8316 173.12C73.3482 173.095 73.3473 173.357 73.7344 171.787C73.8288 171.403 74.0951 171.3 74.454 171.303C75.3776 171.309 76.3008 171.295 77.2244 171.306C77.8572 171.314 77.885 171.33 78.0725 171.932C78.4689 173.207 78.3074 173.118 79.7269 173.121C79.8074 173.122 79.8875 173.121 79.9676 173.121C79.9681 173.129 79.969 173.136 79.969 173.143C80.3677 173.119 80.7673 173.101 81.1651 173.067C81.3101 173.055 81.375 172.908 81.3549 172.805Z" fill="#716040"/>
<path d="M210.195 169.117C209.643 169.095 209.08 169.214 208.54 169.023C208.653 168.074 209.276 165.9 209.752 164.819C210.062 165.231 210.112 165.688 210.242 166.109C210.393 166.604 210.532 167.104 210.678 167.601C210.811 168.054 210.945 168.507 211.067 168.925C210.754 169.18 210.464 169.127 210.195 169.117ZM215.144 172.374C215.091 172.181 215.023 171.993 214.962 171.802C213.953 168.635 212.945 165.467 211.936 162.301C211.851 162.033 211.758 161.768 211.669 161.503C211.584 161.249 211.416 161.107 211.138 161.109C210.698 161.11 210.256 161.109 209.816 161.109C209.335 161.109 208.854 161.113 208.373 161.107C208.089 161.104 207.937 161.266 207.841 161.506C207.798 161.618 207.765 161.734 207.728 161.848C206.641 165.284 205.553 168.721 204.467 172.158C204.408 172.348 204.357 172.543 204.331 172.74C204.307 172.92 204.418 173.071 204.587 173.081C205.106 173.112 205.627 173.12 206.146 173.119C207.099 173.118 207.248 173.257 207.526 172.07C207.544 171.993 207.572 171.916 207.6 171.841C207.776 171.356 207.82 171.314 208.393 171.308C209.315 171.297 210.237 171.296 211.159 171.308C211.726 171.315 211.778 171.337 211.932 171.861C212.364 173.328 212.271 173.097 213.773 173.121C214.054 173.125 214.335 173.128 214.615 173.118C215.224 173.095 215.311 172.971 215.144 172.374Z" fill="#716040"/>
</g>
<defs>
<clipPath id="clip0_720_20447">
<rect width="300" height="173.288" fill="white"/>
</clipPath>
</defs>
</svg>
