<svg width="20" height="24" viewBox="0 0 20 24" fill="none" xmlns="http://www.w3.org/2000/svg">
<path opacity="0.5" d="M0 13.1514C0 11.9258 1.32455e-07 11.313 0.436267 10.9557C0.591156 10.8288 0.779411 10.7272 0.989211 10.6574C1.58014 10.4606 2.35677 10.6544 3.91001 11.0419C5.09584 11.3378 5.68877 11.4857 6.28789 11.4704C6.50793 11.4648 6.72668 11.4428 6.94094 11.4049C7.52434 11.3017 8.04433 11.0422 9.08444 10.5232L10.6203 9.7567C11.9527 9.09187 12.6188 8.75946 13.3834 8.68281C14.1481 8.60616 14.9076 8.79566 16.4266 9.17467L17.7208 9.49759C18.8208 9.77206 19.3708 9.90935 19.6854 10.236C20 10.5627 20 10.9967 20 11.8647V18.6251C20 19.8507 20 20.4635 19.5638 20.8208C19.4089 20.9477 19.2206 21.0492 19.0108 21.1191C18.4199 21.3159 17.6432 21.1221 16.09 20.7346C14.9041 20.4387 14.3112 20.2908 13.7121 20.3061C13.4921 20.3117 13.2733 20.3337 13.0591 20.3716C12.4757 20.4748 11.9557 20.7342 10.9156 21.2532L9.37967 22.0198C8.04733 22.6846 7.38123 23.017 6.61659 23.0937C5.85193 23.1704 5.09243 22.9808 3.57343 22.6018L2.27924 22.2789C1.17921 22.0045 0.629189 21.8671 0.3146 21.5405C-6.62274e-08 21.2138 0 20.7798 0 19.9118V13.1514Z" fill="#716040"/>
<path fill-rule="evenodd" clip-rule="evenodd" d="M10.0007 0.888672C6.31875 0.888672 3.33398 3.72435 3.33398 7.22235C3.33398 10.6929 5.46175 14.7428 8.78154 16.191C9.55543 16.5287 10.4459 16.5287 11.2198 16.191C14.5395 14.7428 16.6673 10.6929 16.6673 7.22235C16.6673 3.72435 13.6825 0.888672 10.0007 0.888672ZM10.0007 9.77756C11.228 9.77756 12.2229 8.78264 12.2229 7.55534C12.2229 6.32804 11.228 5.33312 10.0007 5.33312C8.77332 5.33312 7.77843 6.32804 7.77843 7.55534C7.77843 8.78264 8.77332 9.77756 10.0007 9.77756Z" fill="#716040"/>
</svg>
