<svg width="88" height="92" viewBox="0 0 88 92" fill="none" xmlns="http://www.w3.org/2000/svg">
<path d="M30.7755 4.32396C30.8076 0.449205 35.7792 -1.12076 38.0308 2.03286L53.0413 23.0571C54.0482 24.4674 55.8487 25.069 57.5012 24.5472L82.1349 16.7682C85.8299 15.6014 88.8594 19.8445 86.5559 22.9604L71.1991 43.733C70.169 45.1265 70.1533 47.0248 71.1602 48.4352L86.1706 69.4594C88.4222 72.613 85.3228 76.8054 81.6477 75.5775L57.1462 67.3915C55.5026 66.8423 53.6924 67.414 52.6622 68.8074L37.3055 89.5801C35.002 92.6959 30.057 91.0438 30.0891 87.169L30.3032 61.3372C30.3175 59.6043 29.2144 58.0593 27.5708 57.5102L3.0694 49.3242C-0.605797 48.0963 -0.562599 42.8828 3.13244 41.716L27.7661 33.937C29.4186 33.4152 30.5471 31.8887 30.5615 30.1558L30.7755 4.32396Z" fill="#FFB800"/>
</svg>
