<svg width="157" height="111" viewBox="0 0 157 111" fill="none" xmlns="http://www.w3.org/2000/svg">
<path d="M47.5148 79.0059C37.2036 79.0152 26.5687 84.9141 28.5381 88.7029C30.7795 93.0356 47.7915 90.1143 53.7888 91.7508C62.3042 94.0766 71.4245 99.1595 75.1617 104.242C70.3694 89.3031 59.0265 79.0059 47.5148 79.0059Z" fill="#EADDCF"/>
<path d="M63.1056 75.4613C60.5079 63.9028 35.3604 50.9422 33.1002 49.6339C22.3857 43.449 14.9441 36.27 14.9441 36.27C14.9441 36.27 24.8756 39.1257 35.5807 45.3246C37.8456 46.6282 39.9275 47.9833 41.8688 49.3104C40.176 44.4009 35.9184 34.7601 27.3092 29.7991C15.4927 22.9718 0 27.6515 0 27.6515C0 27.6515 3.695 43.4115 15.5115 50.2341C24.1159 55.2045 53.3383 60.4141 63.1056 75.4613Z" fill="#EADDCF"/>
<path d="M41.0633 63.5139C39.7738 64.3954 38.3859 65.2911 36.876 66.1679C29.7251 70.2896 23.0948 72.2028 23.0948 72.2028C23.0948 72.2028 28.0652 67.4152 35.2113 63.2841C36.7259 62.412 38.2077 61.6617 39.6144 60.9865C36.2054 60.3253 29.214 59.5751 23.4746 62.8902C15.5782 67.4433 13.1211 77.9563 13.1211 77.9563C13.1211 77.9563 23.4558 81.0886 31.3522 76.5355C37.0917 73.2109 39.9333 66.7822 41.0633 63.5139Z" fill="#EADDCF"/>
<path d="M108.922 79.0059C97.4105 79.0059 86.0723 89.2984 81.2754 104.247C85.0173 99.1736 94.1282 94.0906 102.648 91.7648C108.641 90.1143 125.662 93.0356 127.904 88.7169C129.868 84.9047 119.233 79.0152 108.922 79.0059Z" fill="#EADDCF"/>
<path d="M129.128 29.7991C120.514 34.7695 116.261 44.4009 114.573 49.3104C116.514 47.9927 118.587 46.6376 120.856 45.3246C131.561 39.135 141.497 36.27 141.497 36.27C141.497 36.27 134.051 43.4396 123.337 49.6339C121.081 50.9328 95.9243 63.9028 93.3359 75.4613C103.103 60.4141 132.321 55.2045 140.93 50.2341C152.751 43.4115 156.446 27.6515 156.446 27.6515C156.446 27.6515 140.949 22.9718 129.128 29.7991Z" fill="#EADDCF"/>
<path d="M132.959 62.8902C127.215 59.5751 120.228 60.3253 116.824 60.9865C118.235 61.6711 119.712 62.426 121.227 63.2841C128.368 67.4152 133.344 72.2028 133.344 72.2028C133.344 72.2028 126.713 70.2896 119.562 66.1679C118.062 65.2864 116.669 64.3908 115.375 63.5139C116.5 66.7822 119.347 73.2109 125.081 76.5355C132.982 81.0886 143.317 77.9563 143.317 77.9563C143.317 77.9563 140.855 67.4433 132.959 62.8902Z" fill="#EADDCF"/>
<path d="M130.947 13.7154C104.857 8.93725 78.2228 40.3447 78.2228 40.3447C78.2228 40.3447 46.0558 11.1599 25.4941 13.7154C65.0043 34.4599 78.2228 111 78.2228 111C78.2228 111 82.1054 42.225 130.947 13.7154Z" fill="#EADDCF"/>
<path d="M78.2232 26.4464C85.5262 26.4464 91.4464 20.5262 91.4464 13.2232C91.4464 5.92023 85.5262 0 78.2232 0C70.9202 0 65 5.92023 65 13.2232C65 20.5262 70.9202 26.4464 78.2232 26.4464Z" fill="#EADDCF"/>
</svg>
