<svg width="50" height="50" viewBox="0 0 50 50" fill="none" xmlns="http://www.w3.org/2000/svg">
<circle cx="25" cy="25" r="25" fill="white"/>
<path fill-rule="evenodd" clip-rule="evenodd" d="M12.482 16.3338C13.9913 14.7447 14.5258 14.299 15.1683 14.0931C15.6137 13.9761 16.0809 13.9693 16.5295 14.0731C17.1201 14.245 17.2742 14.375 19.2119 16.2999C20.9133 17.9909 21.0815 18.1748 21.2456 18.4986C21.5631 19.0814 21.6142 19.7725 21.3858 20.3954C21.2176 20.8652 20.9694 21.177 19.9385 22.2124L19.2659 22.886C19.089 23.0653 19.047 23.3378 19.1619 23.5616C20.6549 26.1054 22.7728 28.227 25.3152 29.7261C25.6085 29.8832 25.9698 29.8323 26.208 29.6002L26.8546 28.9646C27.2541 28.5552 27.6773 28.1694 28.1217 27.8092C28.8187 27.3787 29.6889 27.3371 30.4237 27.6993C30.782 27.8672 30.9021 27.9771 32.6577 29.7241C34.4593 31.5231 34.5173 31.5811 34.7195 31.9948C35.097 32.6802 35.0932 33.5118 34.7095 34.1936C34.5093 34.5774 34.3972 34.7173 33.3803 35.7547C32.7658 36.3823 32.1793 36.954 32.0952 37.038C31.2555 37.7312 30.1789 38.0716 29.0925 37.9874C27.1052 37.8059 25.1819 37.1919 23.4576 36.1884C19.6359 34.1666 16.3827 31.2205 13.9953 27.6193C13.4732 26.8665 13.0088 26.0754 12.6061 25.2527C11.5329 23.4157 10.9782 21.3227 11.0007 19.1962C11.0814 18.0799 11.6167 17.0454 12.482 16.3338Z" fill="#A67951" stroke="#A67951" stroke-linecap="round" stroke-linejoin="round"/>
<path d="M27.2068 11.0886C26.427 10.8087 25.5683 11.2139 25.2883 11.9936C25.0085 12.7733 25.4137 13.6322 26.1935 13.9121L27.2068 11.0886ZM35.0966 22.6662C35.3896 23.4412 36.2551 23.8318 37.0301 23.5388C37.8049 23.2458 38.1957 22.3803 37.9027 21.6054L35.0966 22.6662ZM24.8307 15.543C24.0226 15.3606 23.2196 15.8677 23.0372 16.6757C22.8546 17.4837 23.3618 18.2867 24.1698 18.4692L24.8307 15.543ZM30.6624 24.8545C30.8584 25.6595 31.6698 26.1531 32.4745 25.9571C33.2795 25.7611 33.7731 24.9499 33.5773 24.145L30.6624 24.8545ZM26.1935 13.9121C30.2996 15.3859 33.5537 18.5855 35.0966 22.6662L37.9027 21.6054C36.0492 16.7029 32.14 12.8592 27.2068 11.0886L26.1935 13.9121ZM24.1698 18.4692C27.371 19.1921 29.8863 21.6659 30.6624 24.8545L33.5773 24.145C32.5315 19.8495 29.1429 16.5169 24.8307 15.543L24.1698 18.4692Z" fill="#A67951"/>
</svg>
